<?xml version="1.0" encoding="utf-8"?>
<!-- Generator: Adobe Illustrator 19.0.0, SVG Export Plug-In . SVG Version: 6.00 Build 0)  -->
<svg version="1.1" id="Layer_1" xmlns="http://www.w3.org/2000/svg" xmlns:xlink="http://www.w3.org/1999/xlink" x="0px" y="0px"
	 viewBox="0 0 128 68" style="enable-background:new 0 0 128 68;" xml:space="preserve">
<style type="text/css">
	.st0{fill:#00BE00;}
	.st1{fill:#05192D;}
	.st2{fill:#FFFFFF;}
</style>
<g id="XMLID_189_">
	<path id="XMLID_195_" class="st0" d="M105.4,44.2c-7.4,0-13.1-2-16.9-6.1c-3.8-4-5.7-9.2-5.7-15.3c0-4.4,1-8.2,3-11.5
		c2-3.3,4.7-5.8,8-7.5c3.3-1.7,7-2.5,11-2.5c4.6,0,8.5,1.1,11.7,3.3V2h7.9v15.4h-7.7l-0.1-0.3c-1.9-5-5.1-7.4-9.7-7.4
		c-3.8,0-6.7,1.3-8.6,3.9c-2,2.6-3,5.8-3,9.5c0,3.8,1,6.9,3.1,9.3c2,2.3,4.7,3.5,7.9,3.5c2.6,0,4.9-0.9,6.8-2.7c2-1.8,3.3-4.3,4-7.5
		l0.1-0.6l9,4.3l-0.1,0.4C122.9,39.4,115.9,44.2,105.4,44.2z M71.7,43.8l-9.2-17.8h-3.9v10h5.1v7.9H41.4v-7.9H47v-26h-5.6V2h25.1
		c4.8,0,8.3,1.2,10.4,3.7C79,8.1,80,10.9,80,13.9c0,4.7-2.3,8.1-6.9,10.4l6.2,11.6h5.5v7.9H71.7z M61.7,18.4c4.2,0,6.2-1.4,6.2-4.3
		c0-1.4-0.4-2.5-1.3-3.1c-0.9-0.7-2.3-1.1-3.9-1.1h-4.1v8.5H61.7z M2,43.8v-7.9h4.9v-26H2V2h36.9v13.9h-8.8v-6H18.5v8.4h10.2v7.9
		H18.5v9.7h11.6v-6.1h8.8v14H2z"/>
	<path id="XMLID_204_" class="st1" d="M104.7,1.9c4.9,0,8.9,1.3,12.2,3.8V2.5h6.9v14.4h-6.9c-2-5.2-5.3-7.7-10.2-7.7
		c-4,0-7,1.4-9,4.1c-2,2.7-3.1,6-3.1,9.8c0,4,1.1,7.2,3.2,9.6c2.2,2.5,4.9,3.7,8.2,3.7c2.7,0,5.1-0.9,7.2-2.8
		c2.1-1.9,3.4-4.4,4.2-7.7l8,3.8c-3,9.5-9.8,14.2-20.1,14.2c-7.3,0-12.8-2-16.6-5.9c-3.7-3.9-5.6-8.9-5.6-15c0-4.3,1-8.1,2.9-11.3
		s4.5-5.6,7.8-7.3C97.2,2.7,100.8,1.9,104.7,1.9 M66.5,2.5c4.6,0,8,1.2,10,3.5c2,2.3,3.1,5,3.1,7.9c0,4.6-2.4,8-7.1,10.1l6.6,12.3
		h5.3v6.9H72l-9.2-17.8h-4.7v11h5.1v6.9H41.9v-6.9h5.6v-27h-5.6V2.5H66.5 M58.1,18.9h3.6c4.5,0,6.7-1.6,6.7-4.8
		c0-1.6-0.5-2.8-1.5-3.5c-1-0.8-2.4-1.2-4.2-1.2h-4.6V18.9 M38.4,2.5v12.9h-7.8v-6H18v9.4h10.2v6.9H18v10.7h12.6v-6.1h7.8v13H2.5
		v-6.9h4.9v-27H2.5V2.5H38.4 M104.7,0.9c-4,0-7.8,0.9-11.2,2.6c-3.4,1.7-6.2,4.3-8.2,7.7c-2,3.4-3,7.3-3,11.8c0,6.3,2,11.5,5.9,15.7
		c3.9,4.1,9.7,6.2,17.3,6.2c10.8,0,17.9-5,21.1-14.9l0.3-0.8l-0.8-0.4l-8-3.8l-1.1-0.5l-0.3,1.2c-0.7,3.1-2,5.5-3.9,7.2
		c-1.9,1.7-4,2.5-6.5,2.5c-3.1,0-5.5-1.1-7.5-3.3c-2-2.3-3-5.3-3-9c0-3.5,1-6.6,2.9-9.2c1.9-2.5,4.6-3.7,8.2-3.7
		c4.4,0,7.4,2.3,9.2,7.1l0.2,0.6h0.7h6.9h1v-1V2.5v-1h-1h-6.9h-1v1v1.3C112.8,1.8,109,0.9,104.7,0.9z M66.5,1.5H41.9h-1v1v6.9v1h1
		h4.6v25h-4.6h-1v1v6.9v1h1h21.3h1v-1v-6.9v-1h-1h-4.1v-9h3.1l8.9,17.3l0.3,0.5H72h12.4h1v-1v-6.9v-1h-1h-4.7l-5.8-10.9
		c4.4-2.3,6.7-5.9,6.7-10.6c0-3.2-1.1-6.1-3.3-8.6C75,2.8,71.4,1.5,66.5,1.5z M59.1,10.4h3.6c1.6,0,2.8,0.3,3.6,1
		c0.8,0.6,1.1,1.5,1.1,2.7c0,1.6-0.6,3.8-5.7,3.8h-2.6V10.4z M39.4,1.5h-1H2.5h-1v1v6.9v1h1h3.9v25H2.5h-1v1v6.9v1h1h35.9h1v-1v-13
		v-1h-1h-7.8h-1v1v5.1H19v-8.7h9.2h1v-1v-6.9v-1h-1H19v-7.4h10.6v5v1h1h7.8h1v-1V2.5V1.5z"/>
	<path id="XMLID_214_" class="st2" d="M108.4,66.9c-2.5,0-4.6-0.7-6.1-2.1c-1.5-1.4-2.3-3.3-2.3-5.6c0-2.3,0.8-4.2,2.2-5.5
		c1.5-1.3,3.2-2,5.2-2c1.4,0,2.8,0.4,4,1.2v-1h3.6v6.3h-3.6l-0.1-0.1c-0.7-1.5-1.7-2.2-3.2-2.2c-0.9,0-1.6,0.3-2.2,0.9
		c-0.5,0.6-0.8,1.4-0.8,2.5c0,1.3,0.3,2.2,0.9,2.8c0.6,0.6,1.3,0.9,2.1,0.9c0.7,0,1.3-0.2,1.9-0.6c0.6-0.4,1.1-0.9,1.5-1.6l0.1-0.2
		l4,1.7l-0.1,0.2C114.1,65.4,111.7,66.9,108.4,66.9z M91,66.9c-2.6,0-4.6-0.7-6-2c-1.4-1.4-2.2-3.2-2.2-5.4c0-2.2,0.8-4.1,2.2-5.7
		c1.5-1.5,3.4-2.3,5.7-2.3c1.7,0,3.1,0.4,4.3,1.3c1.2,0.8,2.1,1.9,2.6,3.2c0.5,1.2,0.7,2.6,0.7,4.2v0.3H87.8
		c0.1,1.1,0.5,1.8,1.1,2.3c0.7,0.5,1.4,0.8,2.2,0.8c1,0,2.1-0.5,3.1-1.6l0.1-0.1l4,1.3l-0.2,0.3C96.6,65.7,94.2,66.9,91,66.9z
		 M93.2,57.4c-0.1-0.6-0.4-1.2-0.8-1.6c-0.5-0.5-1.1-0.8-1.9-0.8c-1.4,0-2.3,0.8-2.6,2.4H93.2z M122.1,66.8c-2.6,0-4-1.3-4-3.9v-7.2
		h-1.8v-3.8h1.8v-2.1l5-3.6v5.7h2.6v3.8h-2.6v5.9c0,0.7,0.1,0.9,0.2,1c0,0.1,0.2,0.2,0.8,0.2c0.4,0,0.8-0.1,1.3-0.3l0.3-0.1V66
		l-0.2,0.1C124.4,66.6,123.2,66.8,122.1,66.8z M46.3,66.8c-1.8,0-3.4-0.8-4.6-2.2c-1.2-1.5-1.8-3.3-1.8-5.4c0-2.1,0.6-3.9,1.8-5.4
		c1.2-1.5,2.8-2.2,4.6-2.2c1.5,0,2.8,0.5,3.8,1.5v-3.6H48v-3.8h7.2v17.1h2.3v3.8h-7.4v-1.4C49,66.3,47.7,66.8,46.3,66.8z M47.6,55.7
		c-0.8,0-1.4,0.3-1.9,0.9c-0.5,0.6-0.7,1.5-0.7,2.6c0,1,0.2,1.9,0.7,2.6c0.4,0.7,1,1,1.9,1c0.7,0,1.3-0.3,1.8-0.8
		c0.5-0.5,0.8-1.5,0.8-2.7c0-1.3-0.3-2.2-0.8-2.7C48.9,56,48.3,55.7,47.6,55.7z M69,66.6v-3.8h2.6v-7.1h-2.5v-3.8h7.1v2.5
		c0.3-0.6,0.8-1.1,1.3-1.6c0.9-0.8,2.1-1.2,3.4-1.2c0.2,0,0.5,0,0.7,0l0.2,0v4.8h-0.3c-1.1,0-2,0.1-2.7,0.4
		c-0.7,0.2-1.2,0.8-1.7,1.6c-0.4,0.8-0.7,1.8-0.7,2.9v1.5h2.8v3.8H69z M58.8,66.6v-3.8H61v-7.1h-2.2v-3.8H66v10.9h2.1v3.8H58.8z
		 M63.6,50.8c-0.7,0-1.4-0.3-1.9-0.8c-0.5-0.5-0.8-1.2-0.8-1.9c0-0.7,0.3-1.4,0.8-1.9c0.5-0.5,1.2-0.8,1.9-0.8
		c0.8,0,1.4,0.3,1.9,0.8c0.5,0.5,0.8,1.2,0.8,1.9c0,0.7-0.3,1.4-0.8,1.9C65,50.6,64.3,50.8,63.6,50.8z"/>
	<path id="XMLID_233_" class="st1" d="M63.6,45.6c0.7,0,1.3,0.2,1.8,0.7s0.7,1.1,0.7,1.8s-0.2,1.3-0.7,1.7c-0.5,0.5-1.1,0.7-1.8,0.7
		c-0.7,0-1.3-0.2-1.7-0.7s-0.7-1.1-0.7-1.7c0-0.7,0.2-1.3,0.7-1.8S62.9,45.6,63.6,45.6 M55,46v17.1h2.3v3.3h-6.9v-1.7
		c-1.3,1.3-2.6,1.9-4.1,1.9c-1.8,0-3.2-0.7-4.4-2.2c-1.2-1.4-1.7-3.2-1.7-5.2c0-2.1,0.6-3.8,1.8-5.2s2.6-2.1,4.4-2.1
		c1.7,0,3,0.6,4.1,1.9v-4.5h-2.2V46H55 M47.7,63c0.8,0,1.4-0.3,2-0.9s0.9-1.6,0.9-2.9c0-1.4-0.3-2.3-0.9-2.9s-1.2-0.9-2-0.9
		c-0.9,0-1.6,0.3-2.1,1s-0.7,1.6-0.7,2.7c0,1.1,0.2,2,0.7,2.7S46.7,63,47.7,63 M122.9,46.7v5.5h2.6v3.3h-2.6v6.1
		c0,0.6,0.1,0.9,0.2,1.1s0.5,0.3,1,0.3c0.4,0,0.9-0.1,1.4-0.3v3.1c-1.2,0.5-2.3,0.7-3.4,0.7c-2.5,0-3.7-1.2-3.7-3.7v-7.4h-1.8v-3.3
		h1.8v-2.2L122.9,46.7 M90.7,51.8c1.6,0,3,0.4,4.2,1.2s2,1.8,2.5,3.1s0.7,2.6,0.7,4.1H87.5c0.1,1.3,0.5,2.2,1.2,2.7s1.5,0.8,2.4,0.8
		c1.1,0,2.2-0.6,3.3-1.7l3.5,1.1c-1.5,2.3-3.8,3.5-6.9,3.5c-2.5,0-4.5-0.7-5.9-2c-1.4-1.3-2.1-3.1-2.1-5.2c0-2.2,0.7-4,2.2-5.5
		S88.5,51.8,90.7,51.8 M87.6,57.7h5.9c-0.1-0.8-0.4-1.5-0.9-2c-0.5-0.6-1.2-0.8-2.1-0.8C88.8,54.8,87.9,55.8,87.6,57.7 M107.4,52
		c1.5,0,3,0.5,4.3,1.4v-1.2h3.1v5.8h-3.2c-0.7-1.6-1.9-2.4-3.4-2.4c-1,0-1.8,0.3-2.4,1s-0.9,1.5-0.9,2.6c0,1.3,0.3,2.3,0.9,3
		s1.4,1,2.3,1c0.7,0,1.4-0.2,2.1-0.6s1.2-1,1.6-1.6l3.5,1.5c-1.3,2.9-3.6,4.3-6.9,4.3c-2.5,0-4.4-0.7-5.9-2
		c-1.5-1.3-2.2-3.1-2.2-5.4s0.7-4,2.2-5.3S105.5,52,107.4,52 M81,52c0.2,0,0.4,0,0.7,0v4.3c-1.1,0-2.1,0.1-2.8,0.4s-1.3,0.8-1.8,1.7
		s-0.7,1.9-0.7,3v1.7h2.8v3.3h-10v-3.3h2.6v-7.6h-2.5v-3.3H76v3.6c0.3-1,0.8-1.9,1.7-2.7S79.7,52,81,52 M65.8,52.2v10.9h2.1v3.3
		h-8.8v-3.3h2.2v-7.6h-2.2v-3.3H65.8 M63.6,45.1c-0.8,0-1.5,0.3-2.1,0.9c-0.6,0.6-0.9,1.3-0.9,2.1c0,0.8,0.3,1.5,0.9,2.1
		c0.6,0.6,1.3,0.9,2.1,0.9c0.8,0,1.5-0.3,2.1-0.9c0.6-0.6,0.9-1.3,0.9-2.1c0-0.8-0.3-1.5-0.9-2.1C65.1,45.4,64.4,45.1,63.6,45.1z
		 M55.5,45.5H55h-6.7h-0.5V46v3.3v0.5h0.5H50v2.8c-1-0.8-2.2-1.2-3.6-1.2c-1.9,0-3.5,0.8-4.7,2.3c-1.3,1.5-1.9,3.4-1.9,5.6
		c0,2.1,0.6,4,1.9,5.5c1.3,1.6,2.9,2.3,4.8,2.3c1.3,0,2.5-0.4,3.6-1.3v0.6v0.5h0.5h6.9h0.5v-0.5v-3.3v-0.5h-0.5h-1.8V46V45.5z
		 M47.7,62.5c-0.7,0-1.3-0.3-1.7-0.9c-0.4-0.6-0.6-1.5-0.6-2.4c0-1,0.2-1.8,0.6-2.4c0.4-0.6,0.9-0.8,1.6-0.8c0.6,0,1.1,0.2,1.6,0.7
		c0.5,0.5,0.7,1.3,0.7,2.5c0,1.2-0.2,2-0.7,2.5C48.8,62.3,48.3,62.5,47.7,62.5z M123.4,45.7l-0.8,0.6l-4.5,3.3l-0.2,0.1v0.3v1.7
		h-1.3h-0.5v0.5v3.3v0.5h0.5h1.3v6.9c0,2.7,1.5,4.2,4.2,4.2c1.2,0,2.4-0.3,3.6-0.8l0.3-0.1v-0.3v-3.1V62l-0.7,0.2
		c-0.5,0.2-0.9,0.3-1.2,0.3c-0.5,0-0.6-0.1-0.6-0.1l0,0c0,0-0.1-0.2-0.1-0.8v-5.6h2.1h0.5v-0.5v-3.3v-0.5h-0.5h-2.1v-5V45.7z
		 M90.7,51.3c-2.4,0-4.3,0.8-5.9,2.3c-1.5,1.6-2.3,3.5-2.3,5.8c0,2.3,0.8,4.2,2.3,5.6c1.5,1.4,3.6,2.1,6.2,2.1
		c3.3,0,5.8-1.2,7.3-3.7l0.3-0.5l-0.6-0.2l-3.5-1.1l-0.3-0.1L94,61.7c-1,1-2,1.5-2.9,1.5c-0.7,0-1.4-0.2-2.1-0.7
		c-0.5-0.4-0.8-1-1-1.8h10h0.5v-0.5c0-1.6-0.2-3-0.7-4.3c-0.5-1.3-1.4-2.4-2.6-3.3C94,51.8,92.5,51.3,90.7,51.3z M88.2,57.2
		c0.3-1.3,1.1-1.9,2.3-1.9c0.7,0,1.3,0.2,1.7,0.7c0.3,0.3,0.5,0.7,0.7,1.2H88.2z M107.4,51.5c-2,0-3.8,0.7-5.4,2.1
		c-1.5,1.4-2.3,3.3-2.3,5.7c0,2.4,0.8,4.3,2.4,5.8c1.6,1.4,3.7,2.2,6.2,2.2c3.5,0,5.9-1.5,7.3-4.6l0.2-0.5l-0.5-0.2l-3.5-1.5
		l-0.4-0.2l-0.2,0.4c-0.3,0.6-0.8,1.1-1.4,1.5c-0.6,0.4-1.1,0.5-1.8,0.5c-0.8,0-1.4-0.3-1.9-0.8c-0.5-0.5-0.8-1.4-0.8-2.6
		c0-1,0.2-1.7,0.8-2.3c0.5-0.6,1.2-0.8,2-0.8c1.4,0,2.3,0.7,3,2.1l0.1,0.3h0.3h3.2h0.5v-0.5v-5.8v-0.5h-0.5h-3.1h-0.5v0.5v0.3
		C110,51.8,108.8,51.5,107.4,51.5z M81,51.5c-1.3,0-2.5,0.4-3.5,1.3c-0.3,0.3-0.7,0.6-0.9,0.9v-1.5v-0.5H76h-6.6h-0.5v0.5v3.3v0.5
		h0.5h2v6.6h-2.1h-0.5v0.5v3.3v0.5h0.5h10h0.5v-0.5v-3.3v-0.5h-0.5h-2.3v-1.2c0-1.1,0.2-2,0.6-2.8c0.4-0.8,0.9-1.2,1.5-1.4
		c0.7-0.2,1.6-0.4,2.6-0.4h0.5v-0.5V52v-0.5l-0.5,0C81.4,51.5,81.2,51.5,81,51.5z M66.3,51.7h-0.5h-6.7h-0.5v0.5v3.3v0.5h0.5h1.7
		v6.6h-1.7h-0.5v0.5v3.3v0.5h0.5h8.8h0.5v-0.5v-3.3v-0.5h-0.5h-1.6V52.2V51.7z"/>
</g>
</svg>
